<svg xmlns="http://www.w3.org/2000/svg" id="a272bf3b-65e5-490b-bdf0-082990667e29" width="1094" height="768.5" data-name="Layer 1" viewBox="0 0 1094 768.5"><title>image_focus</title><rect width="564" height="2" x="530" y="707.5" fill="#3f3d56"/><path fill="#3f3d56" d="M548.52987,159.76624,530.866,140.82842l18.93783-17.66389,17.66388,18.93783ZM533.6815,140.92641l14.94636,16.02432,16.02431-14.94637-14.94636-16.02431Z" transform="translate(-53 -65.75)"/><path fill="#3f3d56" d="M763.44866,429.85474h-25.897v-25.897h25.897Zm-23.90491-1.99207h21.91284V405.94983H739.54375Z" transform="translate(-53 -65.75)"/><rect width="663" height="478" y="222" fill="#ffff"/><polygon fill="#3f3d56" points="352 264 0 306.35 0 270.08 352 264"/><polygon fill="#3f3d56" points="663 602.46 663 640.99 289 596 663 602.46"/><polygon fill="#3f3d56" points="539 489 0 558.9 0 520.87 539 489"/><polygon fill="#3f3d56" points="663 361.17 663 400.76 102 328 663 361.17"/><polygon fill="#3f3d56" points="225 373 0 400.07 0 376.89 225 373"/><path fill="#3f3d56" d="M803,630.75H333v-392H803Zm-468-2H801v-388H335Z" transform="translate(-53 -65.75)"/><path fill="#6017b4" d="M830,239.75c0,.69-.02,1.37-.08,2.04a27.99706,27.99706,0,1,1-52.68-15.11,25.73945,25.73945,0,0,1,2.06-3.31,27.9889,27.9889,0,0,1,50.6,14.1C829.97,238.22,830,238.98,830,239.75Z" transform="translate(-53 -65.75)"/><path fill="#3f3d56" d="M830,239.75c0,.69-.02,1.37-.08,2.04L788,236.75l41.9.72C829.97,238.22,830,238.98,830,239.75Z" transform="translate(-53 -65.75)"/><path fill="#3f3d56" d="M820,253.86l-38.78,4.67a28.05752,28.05752,0,0,1-2.96-3.95Z" transform="translate(-53 -65.75)"/><path fill="#3f3d56" d="M809,222.86l-31.76,3.82a25.73945,25.73945,0,0,1,2.06-3.31Z" transform="translate(-53 -65.75)"/><path fill="#2f2e41" d="M664.91,765.75h-592S63.02,620.65,114.35,592.45c.3-.17.61-.34.92-.49A38.14438,38.14438,0,0,1,131.91,587.75c71-2,63,78,152-32C339.26,487.34,401.96,463.8,444.82,471.41c.79.14,1.57.29,2.35.45,24.84,5.16,42.61005,21.06,47.74,44.89,14,65-27,117,48,101,35.11005-7.49,77.45-2.27,106.3,17.92q.42.3.84.6C682.25,659.33,697.08,701.42,664.91,765.75Z" transform="translate(-53 -65.75)"/><path fill="#f2f2f2" d="M447.17,471.86c-4.94,4.98-22.19,23.99-40.05,62.47-19.43,41.87-43.55,116-48.2,231.42v.04l-1-.04-1-.04c4.66-115.88,28.93-190.33,48.46-232.38,16.95-36.46,33.4-55.6,39.44-61.92C445.61,471.55,446.39,471.7,447.17,471.86Z" transform="translate(-53 -65.75)"/><path fill="#f2f2f2" d="M573.17568,766.0293l-1.91993-.5586c23.11914-79.35351,77.56153-129.45507,78.10938-129.95215l1.34375,1.48047C650.16591,637.49219,596.13075,687.23926,573.17568,766.0293Z" transform="translate(-53 -65.75)"/><path fill="#f2f2f2" d="M166.15175,765.8877l-1.98144-.2754C172.01406,709.042,157.8456,665.15137,144.578,638.294c-14.36572-29.08008-30.75684-44.9629-30.9209-45.12012l1.38379-1.44336c.1665.15918,16.811,16.28613,31.33008,45.67773C159.76259,664.51758,174.06532,708.81348,166.15175,765.8877Z" transform="translate(-53 -65.75)"/><rect width="56" height="56" x="252" y="147" fill="#6017b4"/><polygon fill="#3f3d56" points="257 162 308 165.02 308 168.61 257 162"/><polygon fill="#3f3d56" points="257 192 308 195.02 308 198.61 257 192"/><polygon fill="#3f3d56" points="252 182.68 290 178.11 252 178.77 252 182.68"/><polygon fill="#6017b4" points="789.6 563.39 750 602.99 710.4 563.39 750 523.79 777.76 551.55 789.6 563.39"/><polygon fill="#3f3d56" points="774.77 548.56 777.76 551.55 738 546.39 774.77 548.56"/><polygon fill="#3f3d56" points="729 566.39 783.38 569.61 779.99 573 729 566.39"/><polygon fill="#3f3d56" points="762 585.5 735.68 588.67 733.01 586 762 585.5"/><path fill="#3f3d56" d="M140.52987,524.76624,122.866,505.82842l18.93783-17.66389,17.66388,18.93783ZM125.6815,505.92641l14.94636,16.02432,16.02431-14.94637-14.94636-16.02431Z" transform="translate(-53 -65.75)"/><path fill="#a0616a" d="M779.35582,352.11757s-54.276,53.19047-31.48008,59.70359,48.8484-48.84839,48.8484-48.84839Z" transform="translate(-53 -65.75)"/><polygon fill="#a0616a" points="780.632 465.478 774.119 495.873 822.967 498.044 815.368 465.478 780.632 465.478"/><polygon fill="#a0616a" points="934.776 653.273 928.263 683.668 977.111 685.839 969.512 653.273 934.776 653.273"/><path fill="#2f2e41" d="M902.01956,328.23613l4.34208,17.36832S785.86894,321.723,792.38206,382.51212s34.73663,119.40719,34.73663,119.40719-2.171,19.53936,2.171,22.79592,0,14.11175,0,14.11175,40.16424,5.4276,41.24976-4.34207a68.08262,68.08262,0,0,0-1.08552-19.53936s2.171,0,0-10.8552S858.51312,405.69072,852,393.75c0,0,57.6182,44.12364,88.01276,38.696,0,0-4.34208,43.42079,13.02624,100.95335s17.36831,64.04567,17.36831,64.04567,20.62488,109.6375,15.19728,122.66374l-1.08552,5.4276h40.16424s-3.25656-57.53255,0-65.13119,3.25656-72.72983-15.19728-105.29543C996.41773,532.04809,998.85172,465.18032,1006,438.75c6.0029-22.19536,7.51884-39.27806,4-62-3.763-24.29867-15-37-28.73749-48.51387Z" transform="translate(-53 -65.75)"/><circle cx="881.042" cy="60.037" r="39.079" fill="#a0616a"/><path fill="#a0616a" d="M923.73,153.46743s11.94072,34.73664,10.8552,41.24976,34.73663-13.02624,34.73663-13.02624-14.11175-34.73664-9.76968-44.50631Z" transform="translate(-53 -65.75)"/><path fill="#d0cde1" d="M967.15075,169.75023l-37.99319,15.19728,2.171,13.02624s-3.25656,4.34208-2.171,6.51312-14.11176,10.8552-11.94072,14.11176S904.1906,234.88142,905.27612,238.138s-34.73663,22.79592-15.19728,60.78912c0,0,10.1306,13.16977,8.86118,28.744q-.06692.821-.177,1.65053c-2.171,16.2828,82.49951-2.171,82.49951-2.171V308.69677s7.59864-3.25656,6.51312-17.36831-7.59864-7.59864,0-15.19728,7.59864-6.51312,6.51312-13.02624c-.43348-2.60088-.52076-11.95271-.46921-22.249a98.77627,98.77627,0,0,0-20.15565-60.25044l0,0Z" transform="translate(-53 -65.75)"/><path fill="#d0cde1" d="M946.52588,197.97375,875.96709,271.7891l-103.12439,81.414,22.79592,18.45384,189.966-127.00583S1001.88739,175.17783,946.52588,197.97375Z" transform="translate(-53 -65.75)"/><path fill="#2f2e41" d="M836.88837,547.51114s-7.59864-13.02623-13.02624-8.68416l-37.99319,30.39456s-67.30223,19.53936-2.171,34.73664c0,0,35.82215,5.4276,43.42079,0s19.53936-4.34208,22.79592-2.171,44.50631-1.08552,44.50631-9.76968-22.75053-46.63794-22.75053-46.63794S858.59877,560.53738,836.88837,547.51114Z" transform="translate(-53 -65.75)"/><path fill="#2f2e41" d="M991.03219,735.30608s-7.59864-13.02624-13.02624-8.68416l-37.99319,30.39456s-67.30223,19.53935-2.171,34.73663c0,0,35.82215,5.4276,43.42079,0s19.53936-4.34208,22.79592-2.171,44.50631-1.08552,44.50631-9.76968-22.75053-46.63794-22.75053-46.63794S1012.74259,748.33232,991.03219,735.30608Z" transform="translate(-53 -65.75)"/><path fill="#2f2e41" d="M887.20963,110.28876s6.6075-58.0824,63.11917-41.59093c0,0,39.97873-8.13175,54.0992,41.7997l14.33229,52.34949-6.56046-3.40923L1009.3,166.11235l-10.46989,2.86646-4.6738-8.84961-1.96961,10.89354-72.30448,14.61844S944.33542,157.702,944.162,116.78245l-7.20242,7.90987Z" transform="translate(-53 -65.75)"/><rect width="272" height="2" x="762" y="733.5" fill="#3f3d56"/><rect width="437" height="2" x="630" y="766.5" fill="#3f3d56"/></svg>